<svg width="1200" height="900" viewBox="0 0 1200 900" fill="none" xmlns="http://www.w3.org/2000/svg">
<rect width="1200" height="900" rx="36" fill="#F8FBFF"/>
<circle cx="944" cy="178" r="132" fill="#DBEAFE"/>
<circle cx="1060" cy="118" r="58" fill="#BFDBFE"/>
<rect x="85" y="110" width="1030" height="670" rx="32" fill="white" stroke="#D7E5F4" stroke-width="2"/>
<rect x="155" y="198" width="520" height="432" rx="28" fill="#EFF6FF"/>
<path d="M196 388L408 238L622 388V590C622 603.255 611.255 614 598 614H220C206.745 614 196 603.255 196 590V388Z" fill="#2563EB"/>
<path d="M244 396L408 270L574 396V614H244V396Z" fill="#60A5FA"/>
<rect x="312" y="454" width="84" height="82" rx="10" fill="#DBEAFE"/>
<rect x="430" y="454" width="84" height="82" rx="10" fill="#DBEAFE"/>
<rect x="372" y="518" width="74" height="96" rx="12" fill="#1D4ED8"/>
<rect x="708" y="212" width="330" height="210" rx="22" fill="#0F172A"/>
<rect x="736" y="244" width="156" height="18" rx="9" fill="#BFDBFE"/>
<rect x="736" y="282" width="212" height="12" rx="6" fill="#64748B"/>
<rect x="736" y="310" width="182" height="12" rx="6" fill="#64748B"/>
<rect x="736" y="346" width="110" height="42" rx="14" fill="#2563EB"/>
<rect x="155" y="668" width="885" height="54" rx="18" fill="#F8FAFC"/>
<rect x="185" y="686" width="144" height="18" rx="9" fill="#CBD5E1"/>
<rect x="742" y="683" width="118" height="24" rx="12" fill="#DCFCE7"/>
<rect x="878" y="683" width="130" height="24" rx="12" fill="#DBEAFE"/>
<circle cx="832" cy="548" r="78" fill="#DBEAFE"/>
<circle cx="742" cy="560" r="66" fill="#BFDBFE"/>
<path d="M693 637C693 573.487 744.487 522 808 522H826C889.513 522 941 573.487 941 637V644H693V637Z" fill="#2563EB"/>
<circle cx="786" cy="492" r="44" fill="#F8D9C4"/>
<path d="M748 488C748 458.177 772.177 434 802 434H811C840.823 434 865 458.177 865 488V503H748V488Z" fill="#0F172A"/>
<circle cx="916" cy="573" r="58" fill="#E0F2FE"/>
<path d="M864 642C864 603.34 895.34 572 934 572H941C979.66 572 1011 603.34 1011 642V644H864V642Z" fill="#1D4ED8"/>
<circle cx="932" cy="547" r="33" fill="#F8D9C4"/>
<path d="M905 545C905 522.909 922.909 505 945 505C967.091 505 985 522.909 985 545V552H905V545Z" fill="#334155"/>
</svg>
